<?xml version="1.0" encoding="utf-8"?>
<!-- Generator: Adobe Illustrator 26.0.3, SVG Export Plug-In . SVG Version: 6.00 Build 0)  -->
<svg version="1.0" id="Combined" xmlns="http://www.w3.org/2000/svg" xmlns:xlink="http://www.w3.org/1999/xlink" x="0px" y="0px"
	 viewBox="0 0 1200 780.2" style="enable-background:new 0 0 1200 780.2;" xml:space="preserve">
<style type="text/css">
	.st0{fill:url(#SVGID_1_);}
</style>
<path d="M439.3,346.3c-4.8,0-8.7,3.9-8.7,8.7v70.2c0,4.8,3.9,8.7,8.6,8.7c4.8,0,8.7-3.9,8.7-8.6c0,0,0,0,0,0V355
	C447.9,350.2,444.1,346.3,439.3,346.3z"/>
<path d="M602.7,416.5h-30.3v-17.8h25.3c4.8-0.2,8.5-4.2,8.3-9c-0.2-4.5-3.8-8.2-8.3-8.3h-25.3v-17.8h29.1c4.8-0.2,8.5-4.2,8.3-9
	c-0.2-4.5-3.8-8.2-8.3-8.3h-37.8c-4.8,0-8.7,3.9-8.7,8.7v70.2c0,4.8,3.9,8.7,8.7,8.7l0,0h38.9c4.8-0.2,8.5-4.2,8.3-9
	C610.9,420.3,607.3,416.6,602.7,416.5z"/>
<path d="M1010.7,416.5h-30.3v-17.8h25.3c4.8,0.2,8.8-3.6,9-8.3s-3.6-8.8-8.3-9c-0.2,0-0.4,0-0.6,0h-25.3v-17.8h29.1
	c4.8-0.2,8.5-4.2,8.3-9c-0.2-4.5-3.8-8.2-8.3-8.3h-37.8c-4.8,0-8.7,3.9-8.7,8.7v70.2c0,4.8,3.9,8.7,8.7,8.7h38.9
	c4.8,0.2,8.8-3.6,9-8.3s-3.6-8.8-8.3-9C1011.1,416.5,1010.9,416.5,1010.7,416.5L1010.7,416.5z"/>
<path d="M526.5,346.3c-4.8,0-8.7,3.9-8.7,8.7v43.1l-34.3-48.2c0-0.1-0.1-0.1-0.1-0.2c0-0.1-0.2-0.3-0.3-0.4l-0.3-0.3
	c-0.1-0.1-0.2-0.2-0.3-0.3l-0.3-0.3l-0.3-0.3l-0.4-0.3l-0.3-0.2l-0.4-0.2l-0.4-0.2l-0.3-0.2l-0.4-0.2l-0.3-0.1l-0.5-0.1l-0.4-0.1
	l-0.5-0.1l-0.4-0.1h-0.4h-0.5h-0.4h-0.5h-0.3c-0.2,0-0.4,0-0.5,0.1l-0.3,0.1c-0.2,0-0.3,0.1-0.5,0.1l-0.4,0.1l-0.4,0.1
	c-0.1,0.1-0.3,0.1-0.4,0.2l-0.3,0.1l-0.5,0.2l-0.3,0.2l-0.5,0.3h-0.1l-0.2,0.2l-0.4,0.3l-0.3,0.3l-0.3,0.3l-0.3,0.3l-0.2,0.3
	l-0.3,0.4l-0.2,0.3c-0.1,0.1-0.2,0.3-0.2,0.4l-0.2,0.4l-0.2,0.4c-0.1,0.1-0.1,0.3-0.2,0.4l-0.1,0.3c0,0.1-0.1,0.3-0.1,0.5
	c0,0.2,0,0.2-0.1,0.3l-0.1,0.5c0,0.1,0,0.3-0.1,0.4s0,0.3,0,0.4c0,0.2,0,0.3,0,0.5c0,0.1,0,0.2,0,0.3v70.2c0,4.8,3.9,8.7,8.6,8.7
	c4.8,0,8.7-3.9,8.7-8.6c0,0,0,0,0,0V382l34.4,48.2c0,0,0.1,0.1,0.1,0.1s0.3,0.4,0.5,0.6c0.2,0.2,0.1,0.2,0.2,0.2
	c0.1,0.2,0.3,0.3,0.5,0.5c0.1,0.1,0.1,0.1,0.2,0.2c0.2,0.2,0.5,0.4,0.7,0.6l0.2,0.1c0.2,0.1,0.4,0.2,0.6,0.4
	c0.1,0.1,0.2,0.1,0.3,0.1c0.1,0,0.4,0.2,0.6,0.3l0.3,0.1c0.2,0.1,0.4,0.1,0.7,0.2l0.3,0.1l0.7,0.1h0.2c0.3,0,0.6,0,0.9,0h0.1
	c0.4,0,0.8,0,1.1-0.1h0.3c0.4-0.1,0.8-0.2,1.1-0.3l0,0c0.4-0.1,0.8-0.3,1.1-0.4l0.2-0.1c0.4-0.2,0.7-0.4,1-0.6h0.1l0.2-0.1
	c0.1-0.1,0.3-0.2,0.4-0.3c0.1-0.1,0.2-0.2,0.3-0.3l0.3-0.3l0.3-0.3l0.2-0.3c0.1-0.1,0.2-0.2,0.3-0.4l0.2-0.3
	c0.1-0.1,0.1-0.3,0.2-0.4c0.1-0.1,0.1-0.2,0.2-0.4c0.1-0.1,0.1-0.2,0.2-0.4c0.1-0.1,0.1-0.3,0.2-0.4c0-0.1,0.1-0.2,0.1-0.3
	c0-0.2,0.1-0.3,0.1-0.5c0-0.2,0.1-0.2,0.1-0.3l0.1-0.5c0-0.1,0-0.3,0.1-0.4c0.1-0.1,0-0.3,0-0.4c0-0.1,0-0.3,0-0.5
	c0-0.2,0-0.2,0-0.3V355C535.2,350.2,531.4,346.3,526.5,346.3C526.6,346.3,526.5,346.3,526.5,346.3L526.5,346.3z"/>
<path d="M942.4,346.3h-50.7c-4.8,0-8.7,3.9-8.6,8.7c0,4.8,3.9,8.6,8.6,8.6h16.7v61.5c0,4.8,3.9,8.7,8.6,8.7c4.8,0,8.7-3.9,8.7-8.6
	c0,0,0,0,0,0v-61.5h16.7c4.8,0,8.7-3.9,8.7-8.6S947.1,346.3,942.4,346.3C942.4,346.3,942.4,346.3,942.4,346.3z"/>
<path d="M773,351.7L773,351.7c0,0-0.2-0.4-0.3-0.6l-0.1-0.2c-0.1-0.2-0.2-0.4-0.3-0.5c0-0.1-0.1-0.1-0.1-0.2
	c-0.1-0.2-0.3-0.4-0.4-0.6l-0.1-0.1c-0.5-0.6-1.1-1.2-1.8-1.7l0,0c-0.2-0.1-0.3-0.2-0.5-0.3l-0.2-0.1l-0.4-0.2l-0.4-0.2h-0.1
	l-0.3-0.1l-0.4-0.1l-0.4-0.1l-0.4-0.1c-0.1,0-0.3-0.1-0.4-0.1h-0.4h-0.4h-0.8h-0.5h-0.4l-0.5,0.1l-0.4,0.1l-0.5,0.1l-0.4,0.1
	l-0.4,0.1h-0.1l-0.4,0.2l-0.4,0.2l-0.2,0.1c-0.2,0.1-0.3,0.2-0.5,0.3h-0.1c-0.4,0.3-0.8,0.6-1.2,1v0.1c-0.2,0.2-0.3,0.4-0.5,0.6
	l-0.1,0.2c-0.1,0.2-0.3,0.3-0.4,0.5c0,0.1-0.1,0.2-0.1,0.2c-0.1,0.2-0.2,0.3-0.3,0.5c-0.1,0.2-0.1,0.1-0.1,0.2
	c0,0.1-0.2,0.4-0.3,0.6l-28.3,70.2c-1.8,4.4,0.4,9.5,4.8,11.3c1,0.4,2.1,0.6,3.2,0.6c3.5,0,6.7-2.1,8-5.4l4.3-10.8h31.9l4.4,10.8
	c1.3,3.3,4.5,5.4,8,5.4c1.1,0,2.2-0.2,3.2-0.6c4.4-1.8,6.5-6.8,4.7-11.2L773,351.7z M756,400.3l8.9-22.2l9,22.2H756z"/>
<path d="M706.1,346.3H706c-3,0-5.8,1.5-7.4,4l-26.2,41.1l-26.2-41.1l-0.1-0.1l-0.3-0.4c-0.1-0.1-0.1-0.2-0.2-0.3
	c-0.1-0.1-0.2-0.2-0.3-0.3c-0.1-0.1-0.2-0.2-0.3-0.3l-0.3-0.2l-0.4-0.3c-0.1-0.1-0.2-0.1-0.3-0.2l-0.4-0.3l-0.4-0.2l-0.3-0.2
	l-0.5-0.3l-0.2-0.1l-0.6-0.2l-0.2-0.1l-0.5-0.1l-0.3-0.1l-0.5-0.1h-0.4h-0.4c-0.2,0-0.3,0-0.5,0h-0.3h-0.5h-0.4l-0.5,0.1l-0.4,0.1
	l-0.4,0.1l-0.4,0.1l-0.4,0.1l-0.5,0.2l-0.3,0.1l-0.5,0.3c-0.1,0-0.1,0.1-0.2,0.1h-0.1l-0.4,0.3l-0.3,0.2c-0.1,0.1-0.2,0.2-0.3,0.3
	l-0.3,0.3c-0.1,0.1-0.2,0.2-0.2,0.2l-0.4,0.4l-0.2,0.2c-0.1,0.1-0.2,0.3-0.3,0.4c-0.1,0.1-0.1,0.2-0.2,0.3c-0.1,0.1-0.2,0.3-0.2,0.4
	c-0.1,0.1-0.2,0.3-0.2,0.5l-0.1,0.3c-0.1,0.2-0.1,0.4-0.2,0.6c0,0.1,0,0.1-0.1,0.2s-0.1,0.4-0.1,0.5c0,0.2-0.1,0.2-0.1,0.3
	c0,0.1,0,0.3-0.1,0.5s0,0.3,0,0.4c0,0.1,0,0.3,0,0.4v0.5v70.3c-0.2,4.8,3.6,8.8,8.3,9c4.8,0.2,8.8-3.6,9-8.3c0-0.2,0-0.4,0-0.6
	v-40.5l17.5,27.5l0.1,0.1c0.2,0.3,0.4,0.6,0.6,0.8l0,0c0.2,0.3,0.4,0.5,0.7,0.7l0.3,0.2l0.5,0.4c0.1,0.1,0.2,0.2,0.3,0.2l0.2,0.1
	l0.2,0.1l0.7,0.4l0.4,0.2c0.2,0.1,0.4,0.2,0.6,0.2l0.5,0.1c0.2,0.1,0.4,0.1,0.7,0.1c0.2,0,0.3,0.1,0.5,0.1c0.3,0,0.7,0.1,1,0.1h0.3
	c0.3,0,0.6,0,1-0.1c0.2,0,0.3,0,0.5-0.1c0.2-0.1,0.4-0.1,0.6-0.1l0.5-0.2c0.2-0.1,0.4-0.1,0.6-0.2l0.4-0.2c0.2-0.1,0.5-0.2,0.7-0.4
	l0.2-0.1l0.2-0.1c0.1-0.1,0.2-0.2,0.4-0.2c0.2-0.1,0.3-0.3,0.5-0.4l0.3-0.2c0.3-0.2,0.5-0.5,0.7-0.7l0,0c0.2-0.3,0.4-0.5,0.6-0.8
	c0,0,0-0.1,0-0.1l17.8-27.9v40.9c0,4.8,3.9,8.7,8.6,8.7c4.8,0,8.7-3.9,8.7-8.6c0,0,0,0,0,0V355C714.8,350.2,710.9,346.3,706.1,346.3
	z"/>
<path d="M1098.4,420.2l-16.3-23.2c13.5-5.2,20.3-20.3,15.1-33.8c-3.9-10.1-13.6-16.8-24.5-16.8h-30.6c-4.8,0-8.7,3.9-8.7,8.7v70.2
	c0,4.8,3.9,8.7,8.6,8.7s8.7-3.9,8.7-8.6c0,0,0,0,0,0v-26.4h11.4l22,31.4c2.7,3.9,8.2,4.9,12.1,2.1
	C1100.2,429.5,1101.2,424.1,1098.4,420.2z M1072.8,381.4h-22v-17.8h21.9c4.9,0,8.9,4,8.9,8.9
	C1081.7,377.4,1077.7,381.4,1072.8,381.4L1072.8,381.4z"/>
<path d="M848,382.3c-3.3-0.8-6.5-1.9-9.7-3.3c-2.3-1-5.7-2.8-5.7-8.1c0-7.1,6.2-9.2,12.7-9.2c3.5,0,6.9,0.6,10.2,1.8
	c1.6,0.4,7.1,2.3,8.5,2.3c4.2,0,7.7-3.4,7.7-7.6c0-1.1-0.2-2.2-0.7-3.2c-0.2-0.4-0.4-0.7-0.6-1l-0.1-0.1c-0.3-0.4-0.6-0.8-0.9-1.1
	l0,0c-5.1-5.1-18.6-6.3-25-6.3c-19.1,0-31.1,9.4-31.1,25c0,17.5,14.2,21.5,27.3,25.1c3.6,1.1,7,2.2,9.8,3.3c2.4,1,5.5,2.8,5.5,8.2
	c0,6.6-4.7,10.4-13.9,10.4c-4.5-0.1-9-0.9-13.3-2.4c-1.3-0.4-6.4-2.5-8.1-2.5c-4.2,0-7.7,3.4-7.7,7.7c0,2,0.9,4,2.3,5.4l0,0
	c5.1,5.1,18.7,7.1,26.7,7.1c19.2,0,33.4-9.7,33.4-26.4C875.5,390.1,861.1,386,848,382.3L848,382.3z"/>
<path d="M389.4,389.9l23.9-28.2c3.2-3.5,3-9-0.6-12.3c-3.5-3.2-9-3-12.3,0.6c-0.1,0.1-0.2,0.3-0.4,0.4l-26.2,30.9h-3.6V355
	c-0.2-4.8-4.2-8.5-9-8.3c-4.5,0.2-8.2,3.8-8.3,8.3v70.2c-0.2,4.8,3.6,8.8,8.3,9c4.8,0.2,8.8-3.6,9-8.3c0-0.2,0-0.4,0-0.6v-26.4h3.8
	l29.3,32.2c1.6,1.8,4,2.9,6.4,2.8c4.8,0,8.6-3.8,8.7-8.5c0-2.2-0.8-4.3-2.3-5.9L389.4,389.9z"/>
<linearGradient id="SVGID_1_" gradientUnits="userSpaceOnUse" x1="260.1343" y1="21.6626" x2="390.4681" y2="-108.6712" gradientTransform="matrix(1.1383 0 0 -1.1383 -165.3718 340.5706)">
	<stop  offset="0" style="stop-color:#FC0148"/>
	<stop  offset="1" style="stop-color:#FD7F30"/>
</linearGradient>
<path class="st0" d="M204.9,285.2c-57.9,0-104.9,47-104.9,104.9C100,448,147,495,204.9,495c57.9,0,104.9-47,104.9-104.9
	C309.8,332.2,262.9,285.2,204.9,285.2C205,285.2,204.9,285.2,204.9,285.2z M204.9,297.1c6.8-0.5,12.7,5.5,12.7,12.7
	c0,7-5.7,12.7-12.8,12.7s-12.7-5.7-12.7-12.8C192.2,302.7,197.9,297,204.9,297.1L204.9,297.1z M129.2,378.2
	c-7.3,0-13.2-5.9-12.7-12.7c0-7,5.7-12.7,12.7-12.7s12.7,5.7,12.7,12.7C142,372.5,136.3,378.2,129.2,378.2L129.2,378.2z
	 M157.5,467.2c-7-0.2-12.6-5.8-12.7-12.7c0-7,5.7-12.8,12.7-12.8c7,0,12.8,5.7,12.8,12.7C170.2,461.5,164.5,467.2,157.5,467.2
	C157.5,467.2,157.5,467.2,157.5,467.2z M231.7,432.5c-2.4,0-4.8-1-6.4-2.8l-29.3-32.2h-3.8v26.4c-0.2,4.8-4.2,8.5-9,8.3
	c-4.5-0.2-8.2-3.8-8.3-8.3v-70.2c0.2-4.8,4.2-8.5,9-8.3c4.5,0.2,8.2,3.8,8.3,8.3v26.4h3.6l26.2-30.9c2.8-3.9,8.2-4.9,12.1-2.1
	c3.9,2.8,4.9,8.2,2.1,12.1c-0.3,0.4-0.7,0.8-1,1.2l-23.9,28.2L238,418c3.2,3.5,3,8.9-0.5,12.2C235.9,431.6,233.7,432.4,231.7,432.5
	L231.7,432.5z M251.9,467.2c-7.3,0-13.2-5.9-12.7-12.7c0-7,5.7-12.8,12.7-12.8s12.8,5.7,12.8,12.7
	C264.7,461.5,259,467.2,251.9,467.2C251.9,467.2,251.9,467.2,251.9,467.2z M293.3,365c0,7-5.7,12.8-12.7,12.8s-12.8-5.7-12.8-12.7
	s5.7-12.8,12.7-12.8c0,0,0,0,0,0C287.6,352.3,293.3,358,293.3,365C293.3,365,293.3,365,293.3,365L293.3,365z"/>
</svg>
